<?xml version="1.0" standalone="no"?>
<svg xmlns:xlink="http://www.w3.org/1999/xlink" id="wave" style="transform:rotate(0deg); transition: 0.3s" viewBox="0 0 1440 380" version="1.1" xmlns="http://www.w3.org/2000/svg"><defs><linearGradient id="sw-gradient-0" x1="0" x2="0" y1="1" y2="0"><stop stop-color="rgba(232.517, 186.858, 38.807, 1)" offset="0%"/><stop stop-color="rgba(255, 198.695, 74.233, 1)" offset="100%"/></linearGradient></defs><path style="transform:translate(0, 0px); opacity:1" fill="url(#sw-gradient-0)" d="M0,152L48,152C96,152,192,152,288,133C384,114,480,76,576,76C672,76,768,114,864,158.3C960,203,1056,253,1152,285C1248,317,1344,329,1440,297.7C1536,266,1632,190,1728,171C1824,152,1920,190,2016,221.7C2112,253,2208,279,2304,297.7C2400,317,2496,329,2592,285C2688,241,2784,139,2880,139.3C2976,139,3072,241,3168,272.3C3264,304,3360,266,3456,247C3552,228,3648,228,3744,190C3840,152,3936,76,4032,38C4128,0,4224,0,4320,38C4416,76,4512,152,4608,171C4704,190,4800,152,4896,145.7C4992,139,5088,165,5184,164.7C5280,165,5376,139,5472,120.3C5568,101,5664,89,5760,95C5856,101,5952,127,6048,152C6144,177,6240,203,6336,202.7C6432,203,6528,177,6624,139.3C6720,101,6816,51,6864,25.3L6912,0L6912,380L6864,380C6816,380,6720,380,6624,380C6528,380,6432,380,6336,380C6240,380,6144,380,6048,380C5952,380,5856,380,5760,380C5664,380,5568,380,5472,380C5376,380,5280,380,5184,380C5088,380,4992,380,4896,380C4800,380,4704,380,4608,380C4512,380,4416,380,4320,380C4224,380,4128,380,4032,380C3936,380,3840,380,3744,380C3648,380,3552,380,3456,380C3360,380,3264,380,3168,380C3072,380,2976,380,2880,380C2784,380,2688,380,2592,380C2496,380,2400,380,2304,380C2208,380,2112,380,2016,380C1920,380,1824,380,1728,380C1632,380,1536,380,1440,380C1344,380,1248,380,1152,380C1056,380,960,380,864,380C768,380,672,380,576,380C480,380,384,380,288,380C192,380,96,380,48,380L0,380Z"/><defs><linearGradient id="sw-gradient-1" x1="0" x2="0" y1="1" y2="0"><stop stop-color="rgba(243, 169.68, 62, 1)" offset="0%"/><stop stop-color="rgba(255, 179, 11, 1)" offset="100%"/></linearGradient></defs><path style="transform:translate(0, 50px); opacity:0.9" fill="url(#sw-gradient-1)" d="M0,114L48,101.3C96,89,192,63,288,76C384,89,480,139,576,164.7C672,190,768,190,864,158.3C960,127,1056,63,1152,88.7C1248,114,1344,228,1440,266C1536,304,1632,266,1728,221.7C1824,177,1920,127,2016,133C2112,139,2208,203,2304,234.3C2400,266,2496,266,2592,253.3C2688,241,2784,215,2880,171C2976,127,3072,63,3168,31.7C3264,0,3360,0,3456,0C3552,0,3648,0,3744,12.7C3840,25,3936,51,4032,57C4128,63,4224,51,4320,38C4416,25,4512,13,4608,50.7C4704,89,4800,177,4896,209C4992,241,5088,215,5184,196.3C5280,177,5376,165,5472,158.3C5568,152,5664,152,5760,126.7C5856,101,5952,51,6048,31.7C6144,13,6240,25,6336,50.7C6432,76,6528,114,6624,114C6720,114,6816,76,6864,57L6912,38L6912,380L6864,380C6816,380,6720,380,6624,380C6528,380,6432,380,6336,380C6240,380,6144,380,6048,380C5952,380,5856,380,5760,380C5664,380,5568,380,5472,380C5376,380,5280,380,5184,380C5088,380,4992,380,4896,380C4800,380,4704,380,4608,380C4512,380,4416,380,4320,380C4224,380,4128,380,4032,380C3936,380,3840,380,3744,380C3648,380,3552,380,3456,380C3360,380,3264,380,3168,380C3072,380,2976,380,2880,380C2784,380,2688,380,2592,380C2496,380,2400,380,2304,380C2208,380,2112,380,2016,380C1920,380,1824,380,1728,380C1632,380,1536,380,1440,380C1344,380,1248,380,1152,380C1056,380,960,380,864,380C768,380,672,380,576,380C480,380,384,380,288,380C192,380,96,380,48,380L0,380Z"/></svg>